# xmcd
#
# Track frame offsets:
#	150
#	16357
#	30170
#	43356
#	63663
#	79245
#	98181
#	114648
#	133137
#	148811
#	164252
#	180620
#	195999
#	213546
#	230843
#	246643
#	263549
#	281812
#	297574
#	311782
#
# Disc length: 4374 seconds
#
# Revision: 1
# Processed by: cddbd v1.5.1PL0 Copyright (c) Steve Scherf et al.
# Submitted via: audiograbber 1.83.01
#
DISCID=3c111414
DTITLE=Promo Only Canada - Country Radio - 1999 - 10 - October
DYEAR=1999
DGENRE=Country
TTITLE0=Kenny Chesney - She Thinks My Tractor's Sexy
TTITLE1=Alan Jackson - Pop A Top
TTITLE2=Shania Twain - Come On Over
TTITLE3=Tracy Byrd - Put Your Hand In Mine
TTITLE4=Reba McEntire - What Do You Say
TTITLE5=John Berry - Power Windows
TTITLE6=Mary Chapin Carpenter - Wherever You Are
TTITLE7=Faith Hill - Breathe
TTITLE8=Tara Lyn Hart - Stuff That Matters
TTITLE9=Travis Tritt with George Thorogood - Move It On Over
TTITLE10=Chris LeDoux - Stampede
TTITLE11=Joe Diffie - The Quittin' Kind
TTITLE12=T. Graham Brown - Memphis Women And Chicken
TTITLE13=Jo Dee Messina - Because You Love Me
TTITLE14=The Oak Ridge Boys - Ain't No Short Way Home
TTITLE15=South Sixty Five - Baby's Got My Number
TTITLE16=Trace Adkins - Don't Lie
TTITLE17=Randy Travis - A Man Ain't Made Of Stone
TTITLE18=Claudia Church - It's All Your Fault
TTITLE19=Ty Herndon - Steam
EXTD=
EXTT0=
EXTT1=
EXTT2=
EXTT3=
EXTT4=
EXTT5=
EXTT6=
EXTT7=
EXTT8=
EXTT9=
EXTT10=
EXTT11=
EXTT12=
EXTT13=
EXTT14=
EXTT15=
EXTT16=
EXTT17=
EXTT18=
EXTT19=
PLAYORDER=
